<svg xmlns="http://www.w3.org/2000/svg" viewBox="0 0 1323.03 810.06"><defs><style>.cls-1,.cls-2,.cls-3{fill:#9e6f48;}.cls-2{font-size:72px;letter-spacing:4.5em;}.cls-2,.cls-3{font-family:TsukuBRdGothic-Regular-83pv-RKSJ-H, Tsukushi B Round Gothic;}.cls-3{font-size:126.88px;}</style></defs><g id="レイヤー_2" data-name="レイヤー 2"><g id="レイヤー_2-2" data-name="レイヤー 2"><g id="レイヤー_1-2" data-name="レイヤー 1"><path class="cls-1" d="M27.34,670.28h57l-7.62-5.66q-6.65-4.87-8.5-7.81c-1.24-2-1.85-4.89-1.85-8.79,0-2.08,0-3.49-.1-4.2s-.1-1.47-.1-2.25V452.31c0-.78,0-1.56.1-2.34s.1-2.15.1-4.1q0-5.47,1.66-8.4t7.32-7.23l1.37-1,10.94-8.4-7,.39q-17.77,1.17-32,1.17-8.79,0-24-.59L35,429.27q6.45,4.29,8.4,7.52t2,9.08q.19,3.31.2,6.44V641.57c0,2.09-.07,4.23-.2,6.45,0,4-.58,7-1.76,8.88s-4,4.47-8.59,7.72Z"/><path class="cls-1" d="M275,661.88Q261.32,647,237.7,609.15q-20.91-33.79-36-48.73t-37-23.54q35.34-2.53,53.42-17.28t18.06-41.11a59.85,59.85,0,0,0-6.83-28.62A61.93,61.93,0,0,0,210,428.29q-12.5-8.79-30.66-13.48t-41.21-4.68q-12.51,0-25.39,1.17l-27.35,2.34q-17.58,1.75-39.26,1.76-13.67,0-24-.59l-17.19-1c-1.43,0-3.06-.07-4.88-.2v6.06q19.53,3.71,28.91,14.06a30.19,30.19,0,0,1,7.22,13.67q1.95,8,2,25.78V620.67q0,27.93-7.43,37.31Q21.09,670.67,0,674.19v6H124.22v-6q-20.5-3.12-30.86-13.87a33.63,33.63,0,0,1-7.91-14.65q-2.06-8.2-2-25V540.4h34q13.49,0,21.29,2.54a28.69,28.69,0,0,1,13.48,9.47q5.65,6.93,13.08,22.17l10.36,21.68A217.28,217.28,0,0,0,204.3,641q16.39,19.53,35,31A103,103,0,0,0,269,684.54q14.94,3.51,36.23,3.91V683Q288.66,676.72,275,661.88ZM118.36,532.59h-35V464.81q0-20.51,5.27-30.07Q98,417.94,125,417.94q18.17,0,32.32,7.52a54.47,54.47,0,0,1,22.07,21.19,60.44,60.44,0,0,1,7.91,30.86q0,16.61-6.73,29.39a42.83,42.83,0,0,1-18.66,18.85Q148.64,532.59,118.36,532.59Z"/><path class="cls-1" d="M282.81,680.44A159.16,159.16,0,0,1,266,670.09,141.07,141.07,0,0,1,251,657a202.94,202.94,0,0,1-15.92-18.94q-5.76-8-19-29.89a341.79,341.79,0,0,0-22.56-33.79,116.08,116.08,0,0,0-20.22-20.7,98,98,0,0,0-22.46-12.89,104.49,104.49,0,0,1,12.89,15.82q2.73,4.3,9.77,18.16,2.15,4.11,4.2,8t4,8.21q20.9,40.82,44.92,62A117.21,117.21,0,0,0,282.81,680.44Z"/><path class="cls-1" d="M159.57,533.37A102.55,102.55,0,0,0,183.5,525a68.87,68.87,0,0,0,17.87-12.5,50.34,50.34,0,0,0,10.84-16A47.48,47.48,0,0,0,216,477.7q0-21.29-15.24-37.11t-40.23-20.31a70.59,70.59,0,0,1,18.75,14.46,57.67,57.67,0,0,1,11.52,19,66.19,66.19,0,0,1,3.91,23q0,21.28-8.4,34.86T159.57,533.37Z"/><path class="cls-1" d="M447.07,645.67q-16.6,20.72-31.84,29.79a63.34,63.34,0,0,1-33,9.08,56.47,56.47,0,0,1-28-6.93,50.45,50.45,0,0,1-19.43-19.05q-7.23-12.49-7.23-35.93V560.71q0-16.2-4.88-23.24t-18-9v-4.3L367.58,517V623.8q0,21.48,2.73,29.49a28.39,28.39,0,0,0,9.28,14,23.16,23.16,0,0,0,14.75,5q11.71,0,23-7.43T444,639.23l3.12-3.71V560.71q0-16.2-4.88-23.24t-18-9v-4.3L487.11,517V642.74q0,16.21,4.78,23T510,675v5.27H447.07Z"/><path class="cls-1" d="M352.15,525l-32,3.71,7.81,5.47a.37.37,0,0,1,.29.1c.07.06.23.23.49.49l2.54,2a5.68,5.68,0,0,1,2.34,3.51c.39,1.57.59,4.82.59,9.77v72.85q0,13.88,2.54,22.95a46.27,46.27,0,0,0,8.2,16.31A54.41,54.41,0,0,0,360.64,675a35.19,35.19,0,0,0,16.51,4.49c.39,0,2.27-.13,5.66-.39q-11.71-1.76-18.26-7.52t-9.47-17q-2.94-11.23-2.93-30.57Z"/><path class="cls-1" d="M453.71,671.65h28.91l-4.5-3.52c-.39-.39-.65-.58-.78-.58l-2.54-2a10,10,0,0,1-2.92-7.42v-3.9l-.2-2V525.17l-32,3.51,7.81,5.47a.37.37,0,0,1,.29.1l.49.49,2.54,2a5.68,5.68,0,0,1,2.34,3.51c.4,1.57.59,4.82.59,9.77Z"/><path class="cls-1" d="M589.06,520.28h41.8v6.06h-41.8v116.4q0,10.54,2.44,17.19A18.76,18.76,0,0,0,599.8,670q5.87,3.42,16.22,5v5.27H526.17V675q13.49-2.34,18.26-9.18t4.79-23V526.34h-16.8v-6.06h16.8V502.51q0-21.67,1.95-35.45a84.86,84.86,0,0,1,6.45-23.54,57.64,57.64,0,0,1,21.87-24.9,59.39,59.39,0,0,1,32.23-9.08A55.34,55.34,0,0,1,637,415.4a45.46,45.46,0,0,1,18.17,16,40.29,40.29,0,0,1,6.54,22.26q0,9.38-5,14.94A16.4,16.4,0,0,1,644,474.19a15.43,15.43,0,0,1-12.31-5.47Q627,463.26,627,454.07l.39-9.57v-3.71q0-24.21-15-24.22-8.77,0-14.45,8.89t-7.23,25.1q-1.56,14.64-1.56,45.89Z"/><path class="cls-1" d="M545.7,671.65h39.07l-4.69-3.52a3,3,0,0,0-.78-.58l-2.35-2a9.66,9.66,0,0,1-2.93-7.42l-.19-3.9V499q0-18.17,1.07-32.32a118.06,118.06,0,0,1,3.91-23.83A46,46,0,0,1,586.52,427a55.39,55.39,0,0,1,11.92-11,71.73,71.73,0,0,0-20.8,11.13,46.7,46.7,0,0,0-13.09,16.7q-4.78,10.06-6.74,24.41a277.35,277.35,0,0,0-1.95,36.23V652.31q0,8-.68,10t-4.59,5.28c-.27.26-.43.39-.49.39s-.17.07-.3.19Z"/><path class="cls-1" d="M624.41,417a19.57,19.57,0,0,1,7,9.47q2.14,6,2.14,16.31c0,3.26-.06,6.64-.19,10.16v1.76q0,12.3,8,12.3,7.8,0,7.81-12.11a43.06,43.06,0,0,0-6.84-24.12A32,32,0,0,0,624.41,417Z"/><path class="cls-1" d="M775.78,645.67q-16.6,20.72-31.83,29.79a63.4,63.4,0,0,1-33,9.08,56.47,56.47,0,0,1-28-6.93,50.45,50.45,0,0,1-19.43-19.05q-7.23-12.49-7.23-35.93V560.71q0-16.2-4.88-23.24t-18-9v-4.3L696.29,517V623.8q0,21.48,2.73,29.49a28.39,28.39,0,0,0,9.28,14,23.16,23.16,0,0,0,14.75,5q11.72,0,23-7.43t26.66-25.58l3.12-3.71V560.71q0-16.2-4.88-23.24t-18-9v-4.3L815.82,517V642.74q0,16.21,4.79,23T838.67,675v5.27H775.78Z"/><path class="cls-1" d="M680.86,525l-32,3.71,7.81,5.47a.37.37,0,0,1,.29.1c.07.06.23.23.49.49l2.54,2a5.68,5.68,0,0,1,2.34,3.51c.4,1.57.59,4.82.59,9.77v72.85q0,13.88,2.54,22.95a46.27,46.27,0,0,0,8.2,16.31A54.31,54.31,0,0,0,689.36,675a35.13,35.13,0,0,0,16.5,4.49q.58,0,5.66-.39-11.71-1.76-18.26-7.52t-9.47-17q-2.92-11.23-2.93-30.57Z"/><path class="cls-1" d="M782.42,671.65h28.91l-4.49-3.52c-.39-.39-.66-.58-.79-.58l-2.53-2a10,10,0,0,1-2.93-7.42v-3.9l-.2-2V525.17l-32,3.51,7.81,5.47a.37.37,0,0,1,.29.1l.49.49,2.54,2a5.69,5.69,0,0,1,2.35,3.51c.39,1.57.58,4.82.58,9.77Z"/><path class="cls-1" d="M919.14,556.61a194.47,194.47,0,0,1,23.24-23.53q11.13-9.29,21.49-13.19a63.16,63.16,0,0,1,22.46-3.9,56.4,56.4,0,0,1,27.63,7A49.55,49.55,0,0,1,1033.59,542q7.82,13.29,7.82,35.94v64.84q0,16.21,4.78,23t18.07,9.18v5.27H978.52V675q13.28-2.34,18.06-9.18t4.79-23v-66q0-21.29-2.74-29.49a28.09,28.09,0,0,0-9.37-14,24.49,24.49,0,0,0-15.43-5q-12.51,0-24.32,8.4T919.14,567v75.78q0,16.21,4.79,23T942,675v5.27H856.25V675q13.28-2.34,18.16-9.08t4.89-23.15v-82q0-16.41-5-23.34t-18.07-8.88v-4.3L919.14,517Z"/><path class="cls-1" d="M875.78,671.65h39.06l-4.68-3.52a3.41,3.41,0,0,0-.78-.58l-2.54-2a10.6,10.6,0,0,1-2.93-7.42v-133l-32,3.51,7.61,5.47c.13,0,.39.19.78.59l2.54,2a6.34,6.34,0,0,1,2.54,4,49.37,49.37,0,0,1,.59,9.28V652.31c0,5.34-.27,8.66-.78,10s-2.09,3.07-4.69,5.28c-.39.26-.59.46-.59.58Z"/><path class="cls-1" d="M998.05,671.65h38.86l-4.49-3.52c-.39-.39-.65-.58-.78-.58l-2.54-2a10.05,10.05,0,0,1-2.93-7.42v-3.9l-.19-2V577.7q0-14.84-2-23.43a40.34,40.34,0,0,0-6.64-15q-12.11-16.41-31.44-16.41c-1.31,0-4.3.26-9,.78q12.12,1.75,18.75,7.13t9.48,16.11q2.82,10.75,2.83,29.69v75.78q0,8-.69,10t-4.59,5.28q-.39.39-.48.39c-.07,0-.17.07-.3.19Z"/><path class="cls-1" d="M1138.87,676.92q-33.21-6.82-33.21-36.33,0-19.12,15.43-32.81,6.84-6,26.37-15.43-23.62,4.5-36.72,12.31-22.26,13.67-22.26,36.13,0,16.22,11.81,26.27t30.57,10.06Q1135.34,677.12,1138.87,676.92Z"/><path class="cls-1" d="M1138.87,522.63q-13.68,3.51-22,11.42t-8.3,17.68a9,9,0,0,0,1.76,5.86,5.76,5.76,0,0,0,4.69,2.15,5,5,0,0,0,4.1-1.66q1.36-1.67,2.34-6.74,2.16-10.94,5.57-16.51T1138.87,522.63Z"/><path class="cls-1" d="M1226.66,665.79q-4.79-6.84-4.78-23V586.49q0-15.81-1.67-24.8a54.73,54.73,0,0,0-5.56-16.21,51.09,51.09,0,0,0-22.07-22q-14.85-7.9-34.57-7.91a81,81,0,0,0-28,4.69q-12.8,4.69-20,12.8a26.47,26.47,0,0,0-7.23,18.06,16.75,16.75,0,0,0,4.5,12.11,14.77,14.77,0,0,0,11.13,4.69q8.6,0,12.11-4.4t5.08-16.7q1.37-12.5,6.64-18.45t14.45-6a21.22,21.22,0,0,1,11.62,3.42,23.26,23.26,0,0,1,8.3,9.08q2.54,4.89,3.91,14.55a184.41,184.41,0,0,1,1.37,24.9v8.21q-48.45,1.95-74.22,17T1081.84,641q0,18.56,13.18,30t35.25,11.42q27.54,0,51.57-20.31v18.16h62.89V675Q1231.44,672.63,1226.66,665.79Zm-44.82-12.3q-18.94,15.62-33.4,15.62a25.13,25.13,0,0,1-19.44-8.5q-7.71-8.49-7.71-21.38a40.22,40.22,0,0,1,7.23-23.24q7.21-10.56,20.8-17.39t32.52-9.76Z"/><path class="cls-1" d="M1188.48,671.65h28.9l-4.49-3.52c-.39-.39-.65-.58-.78-.58l-2.54-2a10.05,10.05,0,0,1-2.93-7.42v-3.9l-.19-2v-66.4q0-27.15-6.25-40.63-8.79-18-27.54-23,12.49,8.78,14.64,27.93,1.18,11.72,1.18,36.32Z"/><text class="cls-2" transform="translate(224.06 791.05) scale(0.93 1)">ルフナ</text></g><path class="cls-1" d="M623.66,36.73a32,32,0,0,0-8.08-14,54,54,0,0,0-13.11-9.18c-4.25-2.25-8.7-4.13-13.06-6.18a31.33,31.33,0,0,1-6.8-4.18c-.77-.64-1.5-1.33-2.21-2-.55-.55-1.3-1.6-2.13-1s-.95,3.05-1.14,4.1c-.31,1.64-.58,3.28-.82,4.93-.11.79-.19,1.59-.29,2.38-.07.48-.13,1-.18,1.43q-.26,2.19-.45,4.38c0,.68-.11,1.36-.15,2s-.12,1.33-.16,2c-.49,9.07-.19,18.69,3.09,27.28a29.47,29.47,0,0,0,2.8,5.55c5.32,8.14,15,12.9,24.14,15.39,2.78.76,5.6,1.22,8.44,1.75a7.14,7.14,0,0,1,2.87,1.47c.71.5,1.43,1,2.14,1.44l0,0c.7.47,1.4,1,2.11,1.41,1.06.69,2.14,1.36,3.23,2a4.19,4.19,0,0,0,3.2.87c.77-.18,2-.94,2.16-1.83,0-.11,0-.16.05-.18h0v0l-.06-.1c-.08-.13-.55-.29-.69-.37a111.36,111.36,0,0,1-23.52-17.52,71.21,71.21,0,0,1-10.35-12.5,47.09,47.09,0,0,1-3.85-7.34c-.09-.2-.66-1.24-.57-1.42.27-.46,1.48,0,1.77.16a5.66,5.66,0,0,1,1.29,1.79c.49.83,1,1.65,1.53,2.45A65.63,65.63,0,0,0,607,55.64a71.3,71.3,0,0,0,7.33,5.48c1.1.72,2.22,1.39,3.35,2.07s2.82,2.2,4,1.25c.67-.53.81-1.84,1-2.64.28-1,.55-2.06.79-3.11a55.08,55.08,0,0,0,1.17-6.63A39.8,39.8,0,0,0,623.66,36.73Z"/><path class="cls-1" d="M621.25,75.13h0c-.72-.48-1.44-1-2.15-1.44l-.69-.49c-1.43.78-2.88,1.53-4.33,2.24-.15.07-.63.2-.71.33s-.06.09-.07.09v0h0a.89.89,0,0,1,0,.18c.07.9,1.3,1.73,2.06,2a4.21,4.21,0,0,0,3.25-.7c1.09-.57,2.16-1.16,3.23-1.77Z"/><path class="cls-1" d="M670.5,21.81c0-.68,0-1.35,0-2-.05-1.47-.11-2.93-.2-4.4,0-.48-.07-1-.1-1.44-.06-.8-.09-1.59-.16-2.39-.15-1.66-.33-3.31-.54-5-.14-1.06-.09-3.44-.91-4.16s-1.6.32-2.19.83c-.75.67-1.52,1.31-2.32,1.91A30.93,30.93,0,0,1,657,9c-4.47,1.81-9,3.44-13.39,5.44A54.35,54.35,0,0,0,630,22.83a30.87,30.87,0,0,0-6.39,8,34.28,34.28,0,0,1,2.68,6.68,39.76,39.76,0,0,1,1,15.32,56.89,56.89,0,0,1-1.16,6.64c-.25,1.05-.52,2.08-.8,3.11-.06.22-.11.47-.17.74l.4-.23c1.17-.61,2.32-1.22,3.46-1.87a72.12,72.12,0,0,0,7.63-5.07A65.72,65.72,0,0,0,649.62,43c.57-.76,1.13-1.56,1.67-2.36a5.55,5.55,0,0,1,1.39-1.72c.29-.16,1.53-.53,1.76,0,.09.18-.53,1.18-.64,1.38a47.11,47.11,0,0,1-4.26,7.11,70.71,70.71,0,0,1-11,11.91A109.18,109.18,0,0,1,622,71.15c1.13.79,2.28,1.55,3.44,2.29l1-.58a7.26,7.26,0,0,1,3-1.31c2.86-.37,5.7-.67,8.52-1.27,9.21-2,19.19-6.19,25-14a29.35,29.35,0,0,0,3.1-5.38c3.76-8.39,4.59-18,4.61-27.07C670.54,23.14,670.51,22.47,670.5,21.81Z"/><path class="cls-1" d="M665.89,222.86v10.46H577.13V222.86c-16.53-11.47-39.68-32.66-47.56-47.08-8.14-14.87-11.61-33-11.61-60.51,0-7.17-.45-14.68-3.85-23.59H728.87c-3.36,8.87-3.84,16.38-3.84,23.59,0,27.55-3.48,45.64-11.62,60.51C705.57,190.2,682.42,211.39,665.89,222.86Z"/><path class="cls-1" d="M761.62,169c-2.12,1.72-4.08,3.42-6.26,4.95a49.08,49.08,0,0,1-6.81,4,75.78,75.78,0,0,1-14.79,5.42c-1.27.35-2.56.61-3.84.91l-3.7.84c-2.45.58-4.87,1.23-7.24,2a81,81,0,0,0-13.54,5.39h0a4,4,0,0,1-5.07-5.76l.17-.25c3.78-5.59,7.34-11,9.93-16.71a73.66,73.66,0,0,0,3.4-8.84c1-3,1.76-6.12,2.49-9.26a160.93,160.93,0,0,0,3-19.34l.12-1.23.07-.67.13-.89a22,22,0,0,1,.83-3.48,23.63,23.63,0,0,1,3.13-6.3,29.2,29.2,0,0,1,9.85-8.82,32.53,32.53,0,0,1,12.26-4,30.59,30.59,0,0,1,3.34-.18c.56,0,1.14,0,1.71,0l1.58.14a31.16,31.16,0,0,1,6.4,1.36,26.81,26.81,0,0,1,6.27,3,23.66,23.66,0,0,1,5.34,4.74,25.66,25.66,0,0,1,5.47,12.2,35.92,35.92,0,0,1-.09,11.86,66.6,66.6,0,0,1-2.62,10.59C770.8,157.62,767.1,164.27,761.62,169Zm-2.48-2.41a28.63,28.63,0,0,0,4.29-8.35,39.74,39.74,0,0,0,1.12-4.55,43,43,0,0,0,.53-4.67,64.84,64.84,0,0,0-.13-9.45,30.5,30.5,0,0,0-1.75-8.2,14.49,14.49,0,0,0-3.61-5.62,12.4,12.4,0,0,0-5.33-2.81,21.31,21.31,0,0,0-3.49-.6l-.94-.07c-.27,0-.53,0-.81,0a16.33,16.33,0,0,0-1.7.07,22.42,22.42,0,0,0-7,1.84,16.93,16.93,0,0,0-5.59,3.94,10.45,10.45,0,0,0-1.69,2.53,8.5,8.5,0,0,0-.52,1.38l-.09.35c0,.11-.08.4-.12.58l-.26,1.27c-1.32,6.76-2.76,13.56-4.77,20.3a94.15,94.15,0,0,1-8.13,19.72c-3.47,6.33-8,11.82-12.23,17l-4.9-6h0A70.16,70.16,0,0,1,717.53,181c2.59-.45,5.18-.81,7.76-1.11l3.86-.4c1.24-.13,2.47-.28,3.7-.47a55.13,55.13,0,0,0,14.27-4,46.4,46.4,0,0,0,6.48-3.58A23.81,23.81,0,0,0,759.14,166.62Z"/><text class="cls-3" transform="translate(392.55 359.66)">tea cafe</text></g></g></svg>