<svg xmlns="http://www.w3.org/2000/svg" viewBox="0 0 1281.54 564.64"><defs><style>.cls-1,.cls-5{fill:none;}.cls-1{stroke:#999;stroke-width:11.82px;}.cls-2{fill:#ccc;}.cls-3{font-size:48px;fill:#444;font-family:HiraginoSans-W1-83pv-RKSJ-H, Hiragino Sans;}.cls-4{fill:#c90d49;}.cls-5{stroke:#ccc;stroke-linecap:round;stroke-linejoin:round;stroke-width:6px;}.cls-6,.cls-7,.cls-8{fill:#9d6f48;}.cls-7{font-size:11.96px;letter-spacing:4.5em;}.cls-7,.cls-8{font-family:TsukuBRdGothic-Regular-83pv-RKSJ-H, Tsukushi B Round Gothic;}.cls-8{font-size:21.08px;}</style></defs><g id="レイヤー_2" data-name="レイヤー 2"><g id="レイヤー_1-2" data-name="レイヤー 1"><line class="cls-1" x1="282.17" y1="108.06" x2="282.89" y2="540.99"/><path class="cls-1" d="M264.44,108.06l.07,43.12.18,103.54.21,124.71.18,108.26c0,17.48-.43,35.05.08,52.52,0,.26,0,.52,0,.78,0,9.27,8.14,18.16,17.72,17.73s17.75-7.79,17.73-17.73l-.07-43.12-.17-103.54-.21-124.72L300,161.36c0-17.49.43-35.05-.09-52.53,0-.26,0-.51,0-.77,0-9.27-8.15-18.16-17.73-17.73s-17.75,7.79-17.73,17.73Z"/><polyline class="cls-1" points="204.75 324.65 883.25 323.52 1170.93 275.04 1170.78 185.71"/><path class="cls-1" d="M204.75,349.93l36.17-.06,93.19-.15,128.62-.22,141-.24L735.35,349l100.48-.16c15.47,0,31,.41,46.49-.08,5.7-.18,11.63-1.58,17.26-2.53l42.56-7.17,132.54-22.34,97.89-16.49,5.08-.86c10.76-1.81,18.57-14.11,18.55-24.38l-.13-78.24V185.71c0-13.22-11.62-25.89-25.28-25.28s-25.3,11.11-25.28,25.28l.13,78.24,0,11.08,18.56-24.37-71.11,12L958.21,285.38c-27,4.55-54.14,8.55-81,13.66-3.41.64,9.7-.63,4.88-.8-1.86-.06-3.73,0-5.59,0l-24,0-89.4.15-126.13.21-140.75.24-133.72.22-103.57.18-51.83.08h-2.29c-13.22,0-25.89,11.61-25.27,25.27s11.1,25.31,25.27,25.28Z"/><line class="cls-1" x1="882.98" y1="323.52" x2="883.27" y2="498.09"/><path class="cls-1" d="M865.25,323.52l.1,58.77.16,94.26,0,21.54c0,9.27,8.14,18.16,17.72,17.73S901,508,901,498.09l-.1-58.78-.15-94.26,0-21.53c0-9.27-8.14-18.16-17.73-17.73s-17.74,7.79-17.73,17.73Z"/><path class="cls-2" d="M264.44,108.06l.07,43.12.18,103.54.21,124.71.18,108.26c0,17.48-.43,35.05.08,52.52,0,.26,0,.52,0,.78,0,9.27,8.14,18.16,17.72,17.73s17.75-7.79,17.73-17.73l-.07-43.12-.17-103.54-.21-124.72L300,161.36c0-17.49.43-35.05-.09-52.53,0-.26,0-.51,0-.77,0-9.27-8.15-18.16-17.73-17.73s-17.75,7.79-17.73,17.73Z"/><path class="cls-2" d="M204.75,349.93l36.17-.06,93.19-.15,128.62-.22,141-.24L735.35,349l100.48-.16c15.47,0,31,.41,46.49-.08,5.7-.18,11.63-1.58,17.26-2.53l42.56-7.17,132.54-22.34,97.89-16.49,5.08-.86c10.76-1.81,18.57-14.11,18.55-24.38l-.13-78.24V185.71c0-13.22-11.62-25.89-25.28-25.28s-25.3,11.11-25.28,25.28l.13,78.24,0,11.08,18.56-24.37-71.11,12L958.21,285.38c-27,4.55-54.14,8.55-81,13.66-3.41.64,9.7-.63,4.88-.8-1.86-.06-3.73,0-5.59,0l-24,0-89.4.15-126.13.21-140.75.24-133.72.22-103.57.18-51.83.08h-2.29c-13.22,0-25.89,11.61-25.27,25.27s11.1,25.31,25.27,25.28Z"/><path class="cls-2" d="M865.25,323.52l.1,58.77.16,94.26,0,21.54c0,9.27,8.14,18.16,17.72,17.73S901,508,901,498.09l-.1-58.78-.15-94.26,0-21.53c0-9.27-8.14-18.16-17.73-17.73s-17.74,7.79-17.73,17.73Z"/><text class="cls-3" transform="translate(376 445.68)">今津行き<tspan x="24" y="60">ホーム</tspan></text><text class="cls-3" transform="translate(960 410.68)">連絡デッキ</text><text class="cls-3" transform="translate(72 145.68)">阪急<tspan x="-72" y="60">西宮北口駅</tspan><tspan x="-48" y="120">東改札口</tspan></text><path class="cls-4" d="M172.55,313.86c-.11.51-.2,1-.32,1.53a18.9,18.9,0,0,1-2.65,6.25,16.77,16.77,0,0,1-5.54,5.51c-.85.51-1.77.89-2.66,1.31a6.75,6.75,0,0,0-2.75,2.15,8.31,8.31,0,0,0-1,2.28,9.81,9.81,0,0,1-1.49,3.11,7.55,7.55,0,0,1-3.65,2.47,7.41,7.41,0,0,0-4.81,5,21.81,21.81,0,0,1-1,2.88,9.72,9.72,0,0,1-3.65,3.85c-.67.44-1.39.82-2.07,1.25a13.35,13.35,0,0,0-3.67,3.63A22.47,22.47,0,0,0,134,362.2a27.24,27.24,0,0,0-.87,6.16c0,.3-.12.4-.41.39a6.26,6.26,0,0,0-.75,0c-.28,0-.36-.1-.35-.36,0-1.24,0-2.49.13-3.73.12-1.47.29-2.95.53-4.41a20.57,20.57,0,0,1,2.74-7.36,27,27,0,0,1,5.07-5.91l2.16-1.94a6.06,6.06,0,0,0,1.84-3.46,10,10,0,0,1,1-3.12,8.09,8.09,0,0,1,4.51-3.69,6.82,6.82,0,0,0,4.28-4.11c.35-.8.64-1.62,1-2.39a8.56,8.56,0,0,1,5.08-4.24,10.44,10.44,0,0,0,4.06-2.5,11.43,11.43,0,0,0,3.07-4.83c.1-.32.18-.66.25-1s.06-.47-.37-.41c-.76.1-1.52.19-2.26.34-1.33.28-2.66.56-4,.91a35.53,35.53,0,0,0-5.61,2,41.13,41.13,0,0,0-6.55,3.73,45.13,45.13,0,0,0-7.57,6.71A53.19,53.19,0,0,0,132,342.9a50,50,0,0,0-2.91,8c-.45,1.71-.77,3.44-1.11,5.17a33.7,33.7,0,0,0-.52,5.4.42.42,0,0,1-.65.37.41.41,0,0,1-.13-.27c-.07-.93-.09-1.86-.21-2.77a18,18,0,0,0-4.26-10.14,10.78,10.78,0,0,0-4.06-2.79,26.79,26.79,0,0,1-6.59-3.57,13.24,13.24,0,0,1-3.81-4.47,12.67,12.67,0,0,1-1.25-4.27,11.75,11.75,0,0,1,0-3.19,9.59,9.59,0,0,1,3.21-5.87,12,12,0,0,1,5-2.64,9.38,9.38,0,0,1,4.59-.09,10.06,10.06,0,0,1,4.89,2.56,8.22,8.22,0,0,1,2,3,1,1,0,0,0,.23.38,3.11,3.11,0,0,0,0-.32V306.14a3.72,3.72,0,0,0-.75-2.51s0,0,0-.09h9.58a3,3,0,0,0-.49.81,6.6,6.6,0,0,0-.33,1.75c0,3.45,0,6.9,0,10.34l0,11.26a.67.67,0,0,0,0,.2,2.6,2.6,0,0,0,.1.25,2.39,2.39,0,0,0,.22-.12l3.1-2.72a9.34,9.34,0,0,1,.78-.63.76.76,0,0,0,.35-.72c0-2,0-4.1,0-6.15,0-3.76,0-7.53,0-11.29a11.87,11.87,0,0,0-.2-1.88,2.83,2.83,0,0,0-.35-.8,2.2,2.2,0,0,0-.2-.3H148a1.57,1.57,0,0,1-.13.23,3.38,3.38,0,0,0-.67,2.05c0,4.23,0,8.46,0,12.7a2,2,0,0,0,0,.3,2.2,2.2,0,0,0,.34-.13,59.56,59.56,0,0,1,7.6-3.54,49.64,49.64,0,0,1,6.68-1.95,50.88,50.88,0,0,1,7.27-1c1.15-.08,2.31-.1,3.47-.15Zm-51,15.58-.63-.12a2.39,2.39,0,0,0-1.87,4.32,3.08,3.08,0,0,0,4.25-.84,4.43,4.43,0,0,0,.27-4.74,4.77,4.77,0,0,0-4.54-2.88,6.56,6.56,0,0,0-4,1.41,7.68,7.68,0,0,0-2.55,8.25,10.52,10.52,0,0,0,5.23,6.29c.93.51,1.88,1,2.78,1.52a13,13,0,0,1,6,8c.12.48.25,1,.37,1.46H127V333.62l-.14.15-.07.15a7.15,7.15,0,0,1-2.4,3,6.18,6.18,0,0,1-3.86,1.21,5.64,5.64,0,0,1-3.56-1.46,5.21,5.21,0,0,1-1.83-5.3,4.42,4.42,0,0,1,2.31-3,3.1,3.1,0,0,1,3.09,0A2.13,2.13,0,0,1,121.55,329.44Z"/><text class="cls-3" transform="translate(1065.38 63.11) rotate(0.22)">阪急西宮<tspan x="-24" y="60">ガーデンズ</tspan></text><rect class="cls-2" x="342.55" y="72" width="281" height="188" rx="9.68"/><text class="cls-3" transform="translate(387.05 124.17)">阪急西宮<tspan x="-24" y="60">ガーデンズ</tspan><tspan x="0" y="120">ゲート館</tspan></text><polygon class="cls-5" points="969.54 152.81 969.54 3 736.75 3 696.16 64.68 696.16 185.14 696.15 185.13 687.54 268 725.03 213.03 929.92 213.03 969.54 152.81"/><path class="cls-6" d="M733.26,151.48h9.47l-1.26-.94a5.58,5.58,0,0,1-1.41-1.3,2.71,2.71,0,0,1-.31-1.46c0-.35,0-.58,0-.7s0-.24,0-.37V115.26c0-.13,0-.26,0-.39s0-.35,0-.68a2.9,2.9,0,0,1,.27-1.39,4.57,4.57,0,0,1,1.22-1.2l.23-.17,1.81-1.39-1.16.06c-2,.13-3.75.2-5.33.2-1,0-2.3,0-4-.1l1.72,1.23a4.85,4.85,0,0,1,1.4,1.25,3,3,0,0,1,.32,1.51c0,.37,0,.73,0,1.07v31.45c0,.35,0,.7,0,1.07a3,3,0,0,1-.29,1.48,5.62,5.62,0,0,1-1.43,1.28Z"/><path class="cls-6" d="M774.41,150.08a63.79,63.79,0,0,1-6.2-8.76,45.36,45.36,0,0,0-6-8.09,18.12,18.12,0,0,0-6.15-3.92c3.92-.28,6.88-1.23,8.88-2.87a8.32,8.32,0,0,0,3-6.83,9.87,9.87,0,0,0-1.14-4.75,10.19,10.19,0,0,0-3.21-3.59,15.53,15.53,0,0,0-5.1-2.24,27.37,27.37,0,0,0-6.84-.78c-1.39,0-2.79.07-4.22.2l-4.55.39c-1.94.19-4.12.29-6.52.29-1.51,0-2.84,0-4-.1l-2.86-.16-.81,0v1a8.37,8.37,0,0,1,4.81,2.34,5.08,5.08,0,0,1,1.2,2.27,20.62,20.62,0,0,1,.32,4.29v24.5q0,4.63-1.23,6.2a7.66,7.66,0,0,1-5.1,2.69v1h20.64v-1a8.71,8.71,0,0,1-5.12-2.3,5.66,5.66,0,0,1-1.32-2.44,18.37,18.37,0,0,1-.34-4.15V129.9h5.65a11.83,11.83,0,0,1,3.53.42,4.75,4.75,0,0,1,2.24,1.57,19.69,19.69,0,0,1,2.18,3.69l1.72,3.6a35.84,35.84,0,0,0,4.77,7.43,24.3,24.3,0,0,0,5.81,5.16,17,17,0,0,0,4.95,2.08,29.38,29.38,0,0,0,6,.65v-.91A13,13,0,0,1,774.41,150.08Zm-26-21.48h-5.81V117.34a10.74,10.74,0,0,1,.88-5q1.56-2.79,6-2.79a11.32,11.32,0,0,1,5.37,1.25,9.08,9.08,0,0,1,3.67,3.52,10.05,10.05,0,0,1,1.32,5.13,10.36,10.36,0,0,1-1.12,4.88,7.18,7.18,0,0,1-3.1,3.14Q753.4,128.6,748.38,128.6Z"/><path class="cls-6" d="M775.7,153.17a28,28,0,0,1-2.79-1.72,24.05,24.05,0,0,1-2.49-2.18,34.47,34.47,0,0,1-2.65-3.14q-1-1.33-3.16-5a57.45,57.45,0,0,0-3.75-5.61,19.35,19.35,0,0,0-3.36-3.44,16.55,16.55,0,0,0-3.73-2.15,17.93,17.93,0,0,1,2.14,2.63c.3.48.84,1.48,1.62,3l.7,1.33c.23.43.45.89.66,1.36a34.76,34.76,0,0,0,7.47,10.31A19.44,19.44,0,0,0,775.7,153.17Z"/><path class="cls-6" d="M755.23,128.73a17.06,17.06,0,0,0,4-1.39,11.57,11.57,0,0,0,3-2.08,8.35,8.35,0,0,0,1.8-2.66,7.81,7.81,0,0,0,.64-3.12,8.58,8.58,0,0,0-2.54-6.16,11.84,11.84,0,0,0-6.68-3.38,11.66,11.66,0,0,1,3.11,2.4,9.46,9.46,0,0,1,1.92,3.17,11,11,0,0,1,.65,3.81,10.84,10.84,0,0,1-1.4,5.79A9.61,9.61,0,0,1,755.23,128.73Z"/><path class="cls-6" d="M803,147.39a21,21,0,0,1-5.29,5,10.51,10.51,0,0,1-5.49,1.51,9.43,9.43,0,0,1-4.65-1.15,8.41,8.41,0,0,1-3.23-3.17,12.06,12.06,0,0,1-1.2-6V133.27a7,7,0,0,0-.81-3.86,4.23,4.23,0,0,0-3-1.49v-.71L789.79,126v17.76a17.73,17.73,0,0,0,.45,4.9,4.73,4.73,0,0,0,1.55,2.32,3.85,3.85,0,0,0,2.45.82,6.88,6.88,0,0,0,3.81-1.23,23.18,23.18,0,0,0,4.43-4.25l.52-.62V133.27a7,7,0,0,0-.81-3.86,4.21,4.21,0,0,0-3-1.49v-.71L809.65,126v20.9a6.89,6.89,0,0,0,.8,3.83,4.42,4.42,0,0,0,3,1.53v.88H803Z"/><path class="cls-6" d="M787.23,127.34l-5.33.61,1.3.91,0,0,.08.08.42.32a.92.92,0,0,1,.39.59,7.88,7.88,0,0,1,.1,1.62v12.1a14.57,14.57,0,0,0,.42,3.82,7.71,7.71,0,0,0,1.37,2.71,9.08,9.08,0,0,0,2.61,2.14,5.81,5.81,0,0,0,2.74.75l.94-.07a5.7,5.7,0,0,1-3-1.25,5.51,5.51,0,0,1-1.58-2.82,21.31,21.31,0,0,1-.48-5.08Z"/><path class="cls-6" d="M804.1,151.71h4.8l-.74-.59c-.07-.06-.11-.09-.13-.09l-.42-.33a1.63,1.63,0,0,1-.49-1.23v-.65l0-.33V127.37l-5.33.58,1.3.91.05,0,.08.08.42.32a.92.92,0,0,1,.39.59,7.88,7.88,0,0,1,.1,1.62Z"/><path class="cls-6" d="M826.59,126.56h6.95v1h-6.95V146.9a8.41,8.41,0,0,0,.41,2.86,3.09,3.09,0,0,0,1.38,1.67,7.56,7.56,0,0,0,2.69.83v.88H816.14v-.88a4.48,4.48,0,0,0,3-1.53,6.9,6.9,0,0,0,.79-3.83V127.56h-2.79v-1H820v-3a42.77,42.77,0,0,1,.33-5.89,13.86,13.86,0,0,1,1.07-3.91,9.61,9.61,0,0,1,3.63-4.14,9.92,9.92,0,0,1,5.36-1.5,9.2,9.2,0,0,1,4.2,1,7.6,7.6,0,0,1,3,2.66,6.74,6.74,0,0,1,1.08,3.7,3.57,3.57,0,0,1-.82,2.48,2.73,2.73,0,0,1-2.13.93,2.58,2.58,0,0,1-2-.91,3.63,3.63,0,0,1-.78-2.44L833,114v-.61c0-2.68-.83-4-2.5-4a2.8,2.8,0,0,0-2.4,1.48,9.47,9.47,0,0,0-1.2,4.17c-.17,1.62-.26,4.17-.26,7.63Z"/><path class="cls-6" d="M819.39,151.71h6.49l-.78-.59L825,151l-.39-.33a1.58,1.58,0,0,1-.49-1.23l0-.65V123q0-3,.18-5.37a19.2,19.2,0,0,1,.65-4,7.6,7.6,0,0,1,1.28-2.63,9.16,9.16,0,0,1,2-1.83,11.65,11.65,0,0,0-3.46,1.85,7.72,7.72,0,0,0-2.17,2.77,13.66,13.66,0,0,0-1.12,4.06,45.18,45.18,0,0,0-.33,6v24.56a6.8,6.8,0,0,1-.11,1.66,2.6,2.6,0,0,1-.76.88l-.08.06,0,0Z"/><path class="cls-6" d="M832.47,109.39a3.18,3.18,0,0,1,1.16,1.57,8.21,8.21,0,0,1,.36,2.71c0,.54,0,1.11,0,1.69v.29c0,1.37.44,2,1.33,2s1.3-.67,1.3-2a7.1,7.1,0,0,0-1.14-4A5.33,5.33,0,0,0,832.47,109.39Z"/><path class="cls-6" d="M857.62,147.39a21.13,21.13,0,0,1-5.29,5,10.51,10.51,0,0,1-5.49,1.51,9.43,9.43,0,0,1-4.65-1.15,8.34,8.34,0,0,1-3.23-3.17,12.06,12.06,0,0,1-1.2-6V133.27a7,7,0,0,0-.82-3.86,4.19,4.19,0,0,0-3-1.49v-.71L844.41,126v17.76a17.73,17.73,0,0,0,.45,4.9A4.78,4.78,0,0,0,846.4,151a3.87,3.87,0,0,0,2.45.82,6.89,6.89,0,0,0,3.82-1.23,23.18,23.18,0,0,0,4.43-4.25l.52-.62V133.27a7,7,0,0,0-.81-3.86,4.23,4.23,0,0,0-3-1.49v-.71L864.27,126v20.9a6.9,6.9,0,0,0,.79,3.83,4.43,4.43,0,0,0,3,1.53v.88H857.62Z"/><path class="cls-6" d="M841.84,127.34l-5.32.61,1.3.91,0,0,.08.08.42.32a.92.92,0,0,1,.39.59,7.88,7.88,0,0,1,.1,1.62v12.1a14.57,14.57,0,0,0,.42,3.82,7.86,7.86,0,0,0,1.36,2.71,9,9,0,0,0,2.62,2.14A5.81,5.81,0,0,0,846,153l.94-.07a5.7,5.7,0,0,1-3-1.25,5.51,5.51,0,0,1-1.58-2.82,21.23,21.23,0,0,1-.49-5.08Z"/><path class="cls-6" d="M858.72,151.71h4.8l-.74-.59c-.07-.06-.11-.09-.13-.09l-.43-.33a1.67,1.67,0,0,1-.48-1.23v-.65l0-.33V127.37l-5.33.58,1.3.91.05,0a.54.54,0,0,1,.08.08l.42.32a.92.92,0,0,1,.39.59,7.88,7.88,0,0,1,.1,1.62Z"/><path class="cls-6" d="M881.44,132.59a32.58,32.58,0,0,1,3.86-3.91,12.48,12.48,0,0,1,3.57-2.19,10.55,10.55,0,0,1,3.73-.65,9.36,9.36,0,0,1,4.59,1.17,8.18,8.18,0,0,1,3.26,3.15,11.7,11.7,0,0,1,1.3,6V146.9a6.89,6.89,0,0,0,.8,3.83,4.42,4.42,0,0,0,3,1.53v.88H891.3v-.88a4.42,4.42,0,0,0,3-1.53,6.89,6.89,0,0,0,.8-3.83v-11a18,18,0,0,0-.45-4.91,4.79,4.79,0,0,0-1.56-2.32,4.09,4.09,0,0,0-2.57-.82,6.9,6.9,0,0,0-4,1.39,31,31,0,0,0-5,5V146.9a6.9,6.9,0,0,0,.79,3.83,4.42,4.42,0,0,0,3,1.53v.88H871v-.88a4.56,4.56,0,0,0,3-1.51,6.82,6.82,0,0,0,.81-3.85V133.27a6.83,6.83,0,0,0-.83-3.87,4.29,4.29,0,0,0-3-1.48v-.71L881.44,126Z"/><path class="cls-6" d="M874.23,151.71h6.49l-.78-.59a.38.38,0,0,0-.13-.09l-.42-.33a1.76,1.76,0,0,1-.48-1.23v-22.1l-5.33.58,1.27.91s.06,0,.13.1l.42.32a1,1,0,0,1,.42.67,7.66,7.66,0,0,1,.1,1.54v17a6,6,0,0,1-.13,1.66,2.87,2.87,0,0,1-.78.88c-.06,0-.1.07-.1.09Z"/><path class="cls-6" d="M894.55,151.71H901l-.75-.59c-.07-.06-.11-.09-.13-.09l-.42-.33a1.63,1.63,0,0,1-.49-1.23v-.65l0-.33V136.1a18.16,18.16,0,0,0-.33-3.9,6.67,6.67,0,0,0-1.1-2.5,6.22,6.22,0,0,0-5.22-2.72c-.22,0-.72,0-1.5.13a6.38,6.38,0,0,1,3.12,1.18,5,5,0,0,1,1.57,2.68,19.91,19.91,0,0,1,.47,4.93v12.59a6.8,6.8,0,0,1-.11,1.66,2.6,2.6,0,0,1-.76.88l-.08.06s0,0,0,0Z"/><path class="cls-6" d="M918,152.58c-3.68-.75-5.52-2.77-5.52-6A7,7,0,0,1,915,141.1a20.77,20.77,0,0,1,4.38-2.57,19.05,19.05,0,0,0-6.1,2.05c-2.46,1.51-3.7,3.51-3.7,6a5.44,5.44,0,0,0,2,4.36,7.54,7.54,0,0,0,5.08,1.68C917.11,152.62,917.56,152.61,918,152.58Z"/><path class="cls-6" d="M918,127a8.13,8.13,0,0,0-3.65,1.89,4,4,0,0,0-1.38,2.94,1.44,1.44,0,0,0,.29,1,.94.94,0,0,0,.78.36.84.84,0,0,0,.68-.27,2.84,2.84,0,0,0,.39-1.12A8.58,8.58,0,0,1,916,129,8.49,8.49,0,0,1,918,127Z"/><path class="cls-6" d="M932.53,150.73a6.9,6.9,0,0,1-.79-3.83v-9.34a23.19,23.19,0,0,0-.28-4.12,9.06,9.06,0,0,0-.92-2.7,8.51,8.51,0,0,0-3.67-3.65,12.09,12.09,0,0,0-5.74-1.31,13.44,13.44,0,0,0-4.66.78,8,8,0,0,0-3.33,2.12,4.41,4.41,0,0,0-1.2,3,2.79,2.79,0,0,0,.75,2,2.85,2.85,0,0,0,3.86,0,5.94,5.94,0,0,0,.85-2.77,5.44,5.44,0,0,1,1.1-3.07,3,3,0,0,1,2.4-1,3.51,3.51,0,0,1,1.93.57,3.79,3.79,0,0,1,1.38,1.51,7.85,7.85,0,0,1,.65,2.42,30.77,30.77,0,0,1,.23,4.14v1.36q-8.05.33-12.34,2.82t-4.28,6.88a6.26,6.26,0,0,0,2.19,5,8.61,8.61,0,0,0,5.86,1.9,13,13,0,0,0,8.57-3.37v3h10.45v-.88A4.43,4.43,0,0,1,932.53,150.73Zm-7.44-2q-3.15,2.59-5.55,2.6a4.18,4.18,0,0,1-3.23-1.42,5,5,0,0,1-1.28-3.55,6.68,6.68,0,0,1,1.2-3.86,9,9,0,0,1,3.45-2.89,18,18,0,0,1,5.41-1.62Z"/><path class="cls-6" d="M926.19,151.71H931l-.74-.59c-.07-.06-.11-.09-.13-.09l-.43-.33a1.67,1.67,0,0,1-.48-1.23v-.65l0-.33v-11a16.8,16.8,0,0,0-1-6.75,6.93,6.93,0,0,0-4.58-3.83,6.16,6.16,0,0,1,2.44,4.64c.12,1.3.19,3.31.19,6Z"/><text class="cls-7" transform="translate(765.94 171.55) scale(0.93 1)">ルフナ</text><path class="cls-6" d="M832.34,46.21A5.4,5.4,0,0,0,831,43.88a8.89,8.89,0,0,0-2.18-1.52c-.71-.38-1.45-.69-2.17-1a5,5,0,0,1-1.13-.69l-.37-.34c-.09-.09-.21-.27-.35-.16s-.16.51-.19.68-.1.55-.14.82,0,.26-.05.39l0,.24c0,.25,0,.49-.07.73l0,.34c0,.11,0,.22,0,.33a11.18,11.18,0,0,0,.51,4.53,5.41,5.41,0,0,0,.47.93,6.87,6.87,0,0,0,4,2.55,13.37,13.37,0,0,0,1.4.29,1.3,1.3,0,0,1,.48.25l.35.24h0l.35.23.53.34a.75.75,0,0,0,.54.15c.13,0,.34-.16.36-.31v0h0v0a.67.67,0,0,0-.12-.06,18.84,18.84,0,0,1-3.91-2.91,12.27,12.27,0,0,1-1.72-2.08,9.45,9.45,0,0,1-.64-1.22s-.11-.21-.09-.24.24,0,.29,0a1.11,1.11,0,0,1,.22.3l.25.41a11,11,0,0,0,3.24,3.21l.55.35c.17.09.47.36.67.2s.13-.3.17-.43.09-.35.13-.52a10.13,10.13,0,0,0,.2-1.1A6.84,6.84,0,0,0,832.34,46.21Z"/><path class="cls-6" d="M831.94,52.59h0l-.36-.24-.12-.08c-.23.13-.47.25-.72.37,0,0-.1,0-.11,0l0,0h0v0c0,.15.22.29.34.33a.7.7,0,0,0,.54-.12l.54-.29Z"/><path class="cls-6" d="M840.12,43.73v-.34c0-.24,0-.49,0-.73,0-.08,0-.16,0-.24l0-.4c0-.27,0-.55-.09-.82s0-.57-.15-.69-.27.05-.36.14l-.39.31a4.72,4.72,0,0,1-1.17.63c-.74.3-1.49.57-2.22.91a8.91,8.91,0,0,0-2.26,1.4,5.06,5.06,0,0,0-1.06,1.33,5.35,5.35,0,0,1,.44,1.11,6.64,6.64,0,0,1,.18,2.55,8.18,8.18,0,0,1-.2,1.1c0,.17-.08.34-.13.52a1,1,0,0,0,0,.12l.07,0,.57-.31a10.73,10.73,0,0,0,1.27-.84,11.38,11.38,0,0,0,2.14-2.19l.28-.39a1,1,0,0,1,.23-.29c.05,0,.26-.09.3,0a.8.8,0,0,1-.11.23,7.86,7.86,0,0,1-.71,1.18,11.44,11.44,0,0,1-1.83,2,18.64,18.64,0,0,1-2.75,2c.19.13.38.26.58.38l.16-.1a1.08,1.08,0,0,1,.49-.21c.47-.07.94-.12,1.41-.22a6.87,6.87,0,0,0,4.15-2.33,4.89,4.89,0,0,0,.51-.89,11,11,0,0,0,.77-4.5C840.13,44,840.12,43.84,840.12,43.73Z"/><path class="cls-6" d="M839.36,77.14v1.74H824.61V77.14c-2.75-1.91-6.59-5.43-7.9-7.83s-1.93-5.47-1.93-10.05a10.44,10.44,0,0,0-.64-3.92h35.68a10.38,10.38,0,0,0-.64,3.92c0,4.58-.57,7.58-1.93,10.05S842.1,75.23,839.36,77.14Z"/><path class="cls-6" d="M855.26,68.19a9.63,9.63,0,0,1-2.17,1.49,12.67,12.67,0,0,1-2.45.91c-.87.21-1.66.35-2.46.61a12.7,12.7,0,0,0-2.25.89h0a.66.66,0,0,1-.89-.28.69.69,0,0,1,0-.67l0,0a19.51,19.51,0,0,0,1.66-2.77,15.15,15.15,0,0,0,1-3,25.85,25.85,0,0,0,.48-3.21,5.29,5.29,0,0,1,.2-1A4,4,0,0,1,849,60a4.85,4.85,0,0,1,1.64-1.46,5.92,5.92,0,0,1,2-.67,5.46,5.46,0,0,1,2.17.24,4,4,0,0,1,1.92,1.28,4.19,4.19,0,0,1,.91,2,6.18,6.18,0,0,1,0,2,9,9,0,0,1-.43,1.76A6.66,6.66,0,0,1,855.26,68.19Zm-.41-.4a5.39,5.39,0,0,0,1-2.92,7.56,7.56,0,0,0-.31-2.93,2.07,2.07,0,0,0-1.49-1.4,3.43,3.43,0,0,0-2.31.2,2.79,2.79,0,0,0-.93.66,1.92,1.92,0,0,0-.28.42,2.11,2.11,0,0,0-.16.59c-.22,1.13-.47,2.25-.8,3.37a16.08,16.08,0,0,1-1.35,3.28,18.72,18.72,0,0,1-2,2.83l-.82-1h0a11.44,11.44,0,0,1,2.57-.71c.85-.16,1.75-.23,2.54-.34a9.35,9.35,0,0,0,2.38-.66A5.81,5.81,0,0,0,854.85,67.79Z"/><text class="cls-8" transform="translate(793.94 99.87)">tea cafe</text></g></g></svg>